<?xml version="1.0" encoding="UTF-8" standalone="no"?>
<!DOCTYPE svg PUBLIC "-//W3C//DTD SVG 1.1//EN" "http://www.w3.org/Graphics/SVG/1.1/DTD/svg11.dtd">
<svg width="100%" height="100%" viewBox="0 0 711 330" version="1.1" xmlns="http://www.w3.org/2000/svg" xmlns:xlink="http://www.w3.org/1999/xlink" xml:space="preserve" xmlns:serif="http://www.serif.com/" style="fill-rule:evenodd;clip-rule:evenodd;stroke-miterlimit:10;">
    <path d="M380.377,143.116C408.993,105.633 410.127,58.403 382.91,37.624C355.693,16.845 310.431,30.386 281.814,67.869C253.198,105.351 252.064,152.582 279.281,173.361C306.498,194.14 351.76,180.599 380.377,143.116Z" style="fill:rgb(26,26,26);fill-rule:nonzero;stroke:rgb(255,251,224);stroke-width:2px;"/>
    <path d="M354.93,163.46C356.917,160.107 353.162,152.663 329.787,120.165C315.102,99.75 326.673,108.341 369.814,140.765C425.93,182.927 380.63,185.365 377.337,186.159C333.641,196.717 341.284,186.721 354.93,163.46Z" style="fill:rgb(255,223,107);fill-rule:nonzero;"/>
    <path d="M279.471,149.649L313.672,121.144C315.237,119.818 316.513,119.043 316.473,119.45L316.473,119.569C316.438,119.917 315.435,121.025 314.109,122.187L279.699,152.286C278.095,153.691 273.243,157.858 272.141,158.186C271.505,158.379 272.732,156.199 273.561,155.146C275.473,152.783 277.956,150.935 279.471,149.649Z" style="fill:rgb(255,251,224);fill-rule:nonzero;"/>
    <path d="M300.562,166.325L320.863,123.93C322.224,122.177 322.497,120.185 321.459,119.565L321.161,119.386C320.272,118.859 318.708,119.515 317.461,120.94L284.651,160.996C283.161,162.72 280.39,165.257 281.398,166.956C282.669,169.081 288.43,172.89 291.931,174.981C296.534,177.727 299.251,168.018 300.562,166.325Z" style="fill:rgb(255,251,224);fill-rule:nonzero;"/>
    <path d="M296.45,73.276L321.116,107.919C322.164,109.756 323.287,110.854 323.599,110.328L323.684,110.179C323.937,109.732 323.495,108.222 322.641,106.623L298.665,63.344C297.627,61.407 296.082,58.139 295.189,58.164C294.061,58.194 292.209,60.95 291.216,62.723C289.875,65.042 295.442,71.483 296.45,73.276Z" style="fill:rgb(255,251,224);fill-rule:nonzero;"/>
    <path d="M302.25,54.901C302.25,54.901 319.403,92.206 323.748,101.116C324.881,100.847 325.958,94.55 325.566,92.604C325.566,92.604 327.503,64.153 326.127,50.839C326.018,49.801 326.495,41.528 319.671,40.753C315.142,40.237 301.103,50.139 302.25,54.901Z" style="fill:rgb(255,251,224);fill-rule:nonzero;"/>
    <path d="M397.797,137.706C396.675,132.869 387.413,128.464 341.12,114.737C312.028,106.111 328.764,105.525 391.486,103.733C473.033,101.404 437.293,139.19 435.187,142.547C407.456,187.103 405.584,171.286 397.797,137.706Z" style="fill:rgb(241,80,80);fill-rule:nonzero;"/>
    <path d="M414.613,76.896C409.15,72.665 396.784,75.406 342.749,97.982C308.791,112.16 323.192,98.116 377.546,45.918C448.218,-21.949 451.272,46.792 452.494,52.031C468.936,121.541 452.633,106.27 414.613,76.896Z" style="fill:rgb(138,113,240);fill-rule:nonzero;"/>
    <path d="M337.911,111.913C341.975,104.961 340.505,96.54 334.628,93.105C328.751,89.67 320.693,92.52 316.629,99.472C312.565,106.424 314.034,114.844 319.911,118.28C325.788,121.715 333.847,118.865 337.911,111.913Z" style="fill:rgb(255,251,224);fill-rule:nonzero;stroke:rgb(26,26,26);stroke-width:2px;"/>
    <g>
        <path d="M42.1,177.06L0,177.06L0,150L120.19,150L120.19,177.06L77.59,177.06L77.59,296.79L42.1,296.79L42.1,177.06Z" style="fill:rgb(255,251,224);fill-rule:nonzero;"/>
        <path d="M100.45,212.12L110.05,212.12L115.43,225.52C120.82,214.27 130.58,208.81 146.91,211.13L146.91,231.47C126.91,229.32 123.51,241.89 123.51,253.79L123.51,296.79L100.45,296.79L100.45,212.12Z" style="fill:rgb(255,251,224);fill-rule:nonzero;"/>
        <path d="M168.8,175.08C177.38,175.08 183.28,177.39 183.28,186.82C183.28,196.08 177.38,198.39 168.8,198.39C159.88,198.39 153.98,196.08 153.98,186.82C154,177.39 160.21,175.08 168.8,175.08ZM157.18,212.08L180.42,212.08L180.42,296.75L157.18,296.75L157.18,212.08Z" style="fill:rgb(255,251,224);fill-rule:nonzero;"/>
        <path d="M195.06,212.12L205,212.12L210.05,226.18C215.44,217.58 224.36,210.8 243.21,210.8C270.31,210.8 280.41,232.46 280.41,254.8C280.41,277.62 271.16,298.12 243.88,298.12C229.07,298.12 221.5,292.67 217.96,287.7L217.96,329.87L195.06,329.87L195.06,212.12ZM236.65,279.12C252.65,279.12 256.85,269.36 256.85,254.81C256.85,240.26 252.64,229.32 237,229.32C220.67,229.32 217.81,239.9 217.81,254.79C217.79,268.84 220.15,279.1 236.65,279.1L236.65,279.12Z" style="fill:rgb(255,251,224);fill-rule:nonzero;"/>
        <path d="M299.51,276.49L299.51,255.85L292.77,255.85L292.77,249.75L299.51,246L299.51,234.32L311.45,234.32L311.45,245.81L323.57,245.81L323.57,255.81L311.81,255.81L311.81,276.37C311.81,281.48 314.95,282.74 323.57,282.11L323.57,292.11C307.23,293.54 299.51,290.67 299.51,276.49Z" style="fill:rgb(255,251,224);fill-rule:nonzero;"/>
        <path d="M329.4,228.31L341.6,228.31L341.6,250.92C342.86,248.41 347.08,245.09 354.71,245.09C369.26,245.09 372.4,254.09 372.4,266.98L372.4,291.75L360.1,291.75L360.1,265.82C360.1,258.91 358.76,255.5 351.1,255.5C343.44,255.5 341.68,258.73 341.68,265.82L341.58,291.75L329.4,291.75L329.4,228.31Z" style="fill:rgb(255,251,224);fill-rule:nonzero;"/>
        <path d="M378.05,268.78C378.05,257.29 381.82,245.09 400.4,245.09C417.91,245.09 423.12,259.09 421.77,273.62L390.61,273.62C390.98,280.17 395.11,282.96 400.5,282.96C406.06,282.96 408.3,280.53 408.84,277.84L421.84,277.84C421.04,285.56 415.74,292.47 400.92,292.47C382.08,292.47 378.05,280.62 378.05,268.78ZM409.11,264.2C408.93,258.28 406.33,254.69 399.77,254.69C393.58,254.69 390.89,258.28 390.61,264.2L409.11,264.2Z" style="fill:rgb(255,251,224);fill-rule:nonzero;"/>
        <path d="M439.64,167.53L531.23,167.53L531.23,191.36L468.53,191.36L468.53,223.27L526.31,223.27L526.31,246.5L468.53,246.5L468.53,296.79L439.64,296.79L439.64,167.53Z" style="fill:rgb(255,251,224);fill-rule:nonzero;"/>
        <path d="M537.08,274.14C537.08,257.79 548.21,250.72 574.29,248.53L597.94,246.53C597.77,234.87 593.24,230 580,230C567.3,230 563.65,235.57 563.65,244L540,244.14C540,226.45 547.48,212.14 579.47,212.14C616.47,212.14 621.73,227.98 621.73,250.9L621.73,299.78L611.67,299.78L606.28,285.96C601.07,293.88 590.63,301.13 572.55,301.13C552.73,301.11 537.08,292.68 537.08,274.14ZM578.29,283.08C594.46,283.08 597.77,273.3 597.94,262.01L577.94,264.2C565.6,265.55 561.94,268.41 561.94,272.96C561.94,278.86 566.64,283.08 578.29,283.08Z" style="fill:rgb(255,251,224);fill-rule:nonzero;"/>
        <path d="M629.87,213.09L639.42,213.09L644.78,226.55C650.64,217.63 658.35,211.74 677.11,211.74C704.24,211.74 710.11,228.23 710.11,252.29L710.11,299.29L687.16,299.29L687.16,250.49C687.16,238.21 684.64,231.14 670.41,231.14C656,231.14 652.82,238.55 652.82,251L652.82,299.29L629.82,299.29L629.87,213.09Z" style="fill:rgb(255,251,224);fill-rule:nonzero;"/>
    </g>
</svg>
